<svg xmlns="http://www.w3.org/2000/svg" width="34" height="34" viewBox="0 0 34 34"><g transform="translate(0)"><path d="M35,1H17.773L11.968,6.805v4.066H9.226A3.843,3.843,0,0,0,5.387,14.71v2.742H2.645A1.647,1.647,0,0,0,1,19.1v6.581a1.643,1.643,0,0,0,1.1,1.544v5.036A2.745,2.745,0,0,0,4.839,35H21.29a2.745,2.745,0,0,0,2.742-2.742V31.71H35ZM17.452,2.872V6.484H13.84ZM6.484,14.71a2.745,2.745,0,0,1,2.742-2.742H16.9a2.745,2.745,0,0,1,2.742,2.742v2.742h-1.1V14.71A1.647,1.647,0,0,0,16.9,13.064H9.226A1.647,1.647,0,0,0,7.581,14.71v2.742h-1.1Zm20.839,4.935a4.391,4.391,0,0,1,4.349,3.839H27.55l-2.421-2.421v-.818A4.357,4.357,0,0,1,27.323,19.645Zm.371,4.935h3.977a4.368,4.368,0,0,1-5.455,3.693Zm-2.565,1.1V22.614l1.55,1.55-1.481,3.7a4.375,4.375,0,0,1-.973-.728,1.64,1.64,0,0,0,.9-1.46Zm-1.1,0a.549.549,0,0,1-.548.548H17.452v-1.1h4.387a1.1,1.1,0,0,0,1.1-1.1V18.548h.548a.549.549,0,0,1,.548.548Zm-2.194-1.645H17.351a1.643,1.643,0,0,0-1.544-1.1H10.323a1.643,1.643,0,0,0-1.544,1.1H4.29V18.548H21.839Zm-5.484.548v2.194a.549.549,0,0,1-.548.548H10.323a.549.549,0,0,1-.548-.548V24.581a.549.549,0,0,1,.548-.548h5.484A.549.549,0,0,1,16.355,24.581Zm1.1-7.129H8.677V14.71a.549.549,0,0,1,.548-.548H16.9a.549.549,0,0,1,.548.548ZM2.1,19.1a.549.549,0,0,1,.548-.548h.548v5.484a1.1,1.1,0,0,0,1.1,1.1H8.677v1.1H2.645a.549.549,0,0,1-.548-.548ZM21.29,33.9H4.839a1.647,1.647,0,0,1-1.645-1.645V27.323H8.778a1.643,1.643,0,0,0,1.544,1.1h5.484a1.643,1.643,0,0,0,1.544-1.1h5.585v4.935A1.647,1.647,0,0,1,21.29,33.9ZM33.9,30.613H24.032v-2.2a5.489,5.489,0,1,0,1.089-9.4,1.643,1.643,0,0,0-1.637-1.567H20.742V14.71A3.843,3.843,0,0,0,16.9,10.871H13.065V7.581h5.484V2.1H33.9Z" transform="translate(-1 -1)"/><path d="M48.869,5H45.632v8.632H44.553V7.158H41.316v6.474H40.237V9.316H37v5.4H48.869Zm-9.711,8.632H38.079V10.4h1.079Zm3.237-5.4h1.079v5.4H42.4Zm5.4,5.4H46.711V6.079H47.79Z" transform="translate(-17.027 -2.842)"/><path d="M47,25h6.474v1.079H47Z" transform="translate(-21.632 -11.832)"/><path d="M57,29h1.079v1.079H57Z" transform="translate(-26.237 -13.637)"/><path d="M47,29h4.316v1.079H47Z" transform="translate(-21.632 -13.637)"/><path d="M8.079,53H7v2.158a1.08,1.08,0,0,0,1.079,1.079H12.4V55.158H8.079Z" transform="translate(-3.763 -24.395)"/><path d="M19,57h1.079v1.079H19Z" transform="translate(-9.124 -26.237)"/></g></svg>