<svg xmlns="http://www.w3.org/2000/svg" width="26.094" height="34.035" viewBox="0 0 26.094 34.035"><g transform="translate(0 0)"><path d="M81.527,2.269H74.152V.567A.567.567,0,0,0,73.585,0H64.509a.567.567,0,0,0-.567.567h0v1.7H56.567A.567.567,0,0,0,56,2.836h0V33.468a.567.567,0,0,0,.567.567H81.526a.567.567,0,0,0,.567-.567h0V2.836A.567.567,0,0,0,81.527,2.269ZM65.076,1.135h7.942v3.4H65.076ZM80.959,32.9H57.135V3.4h6.807v1.7a.567.567,0,0,0,.567.567h9.076a.567.567,0,0,0,.567-.567h0V3.4h6.807Z" transform="translate(-56 0)"/></g><g transform="translate(2.288 26.239)"><g transform="translate(0 0)"><rect width="12.296" height="0.768" transform="translate(0)"/></g></g><g transform="translate(15.352 26.239)"><g transform="translate(0 0)"><rect width="8.453" height="0.768"/></g></g><g transform="translate(2.288 27.776)"><g transform="translate(0 0)"><rect width="21.517" height="1.537" transform="translate(0)"/></g></g><g transform="translate(2.288 30.082)"><g transform="translate(0 0)"><rect width="9.222" height="1.537" transform="translate(0)"/></g></g><g transform="translate(12.278 30.082)"><g transform="translate(0 0)"><rect width="11.527" height="1.537"/></g></g><g transform="translate(2.269 16.45)"><path d="M91.971,232h-3.4a.567.567,0,0,0-.567.567h0v7.374a.567.567,0,0,0,.567.567h3.4a.567.567,0,0,0,.567-.567h0v-7.374A.567.567,0,0,0,91.971,232Zm-.568,7.374H89.135v-6.24H91.4Z" transform="translate(-88 -232)"/></g><g transform="translate(7.942 14.181)"><path d="M171.971,200h-3.4a.567.567,0,0,0-.567.567h0v9.643a.567.567,0,0,0,.567.567h3.4a.567.567,0,0,0,.567-.567h0v-9.643A.567.567,0,0,0,171.971,200Zm-.568,9.643h-2.269v-8.509H171.4Z" transform="translate(-168 -200)"/></g><g transform="translate(13.614 11.912)"><path d="M251.971,168h-3.4a.567.567,0,0,0-.567.567h0V180.48a.567.567,0,0,0,.567.567h3.4a.567.567,0,0,0,.567-.567h0V168.567A.567.567,0,0,0,251.971,168Zm-.568,11.912h-2.269V169.134H251.4Z" transform="translate(-248 -168)"/></g><g transform="translate(19.287 9.643)"><path d="M331.971,136h-3.4a.567.567,0,0,0-.567.567h0v14.181a.567.567,0,0,0,.567.567h3.4a.567.567,0,0,0,.567-.567h0V136.567A.567.567,0,0,0,331.971,136Zm-.568,14.181h-2.269V137.135H331.4Z" transform="translate(-328 -136)"/></g><g transform="translate(2.536 5.684)"><path d="M112.372,80.156,106.7,81.291a.568.568,0,0,0-.2.084l-4.962,3.308H96.6a.565.565,0,0,0-.3.086l-4.538,2.836.6.962,4.4-2.75h4.943a.568.568,0,0,0,.315-.1l5.012-3.341,5.563-1.112Z" transform="translate(-91.762 -80.156)"/></g></svg>