<svg xmlns="http://www.w3.org/2000/svg" width="34.416" height="34.416" viewBox="0 0 34.416 34.416">
  <g id="Group_1083" data-name="Group 1083" transform="translate(-284 178)">
    <g id="XMLID_879_" transform="translate(284 -178)">
      <g id="XMLID_200_">
        <path id="XMLID_213_" d="M26.484,14.385H28.61a2.33,2.33,0,0,0,2.328-2.328V8.335H32.4a2.019,2.019,0,0,0,2.017-2.017v-4.3A2.019,2.019,0,0,0,32.4,0H28.1a2.019,2.019,0,0,0-2.017,2.017v4.3A2.019,2.019,0,0,0,28.1,8.335h1.5v3.722a.984.984,0,0,1-.983.983H26.4A1.9,1.9,0,0,0,24.59,11.7h-6.7V8.335h1.47a2.019,2.019,0,0,0,2.017-2.017v-4.3A2.019,2.019,0,0,0,19.359,0h-4.3A2.019,2.019,0,0,0,13.04,2.017v4.3a2.019,2.019,0,0,0,2.017,2.017h1.487V11.7H9.826A1.9,1.9,0,0,0,8.014,13.04H5.823a.984.984,0,0,1-.983-.983V8.335H6.319A2.019,2.019,0,0,0,8.335,6.319v-4.3A2.019,2.019,0,0,0,6.319,0h-4.3A2.019,2.019,0,0,0,0,2.017v4.3A2.019,2.019,0,0,0,2.017,8.335H3.5v3.722a2.33,2.33,0,0,0,2.328,2.328H7.932v5.646H5.823A2.33,2.33,0,0,0,3.5,22.359v3.722H2.017A2.019,2.019,0,0,0,0,28.1v4.3a2.019,2.019,0,0,0,2.017,2.017h4.3A2.019,2.019,0,0,0,8.335,32.4V28.1a2.019,2.019,0,0,0-2.017-2.017H4.84V22.359a.984.984,0,0,1,.983-.983H8.014A1.9,1.9,0,0,0,9.826,22.72h6.718v3.361H15.057A2.019,2.019,0,0,0,13.04,28.1v4.3a2.019,2.019,0,0,0,2.017,2.017h4.3A2.019,2.019,0,0,0,21.376,32.4V28.1a2.019,2.019,0,0,0-2.017-2.017h-1.47V22.72h6.7A1.9,1.9,0,0,0,26.4,21.376H28.61a.984.984,0,0,1,.983.983v3.722H28.1A2.019,2.019,0,0,0,26.081,28.1v4.3A2.019,2.019,0,0,0,28.1,34.416h4.3A2.019,2.019,0,0,0,34.416,32.4V28.1A2.019,2.019,0,0,0,32.4,26.081H30.938V22.359a2.33,2.33,0,0,0-2.328-2.328H26.484Zm.941-8.066v-4.3a.673.673,0,0,1,.672-.672h4.3a.673.673,0,0,1,.672.672v4.3a.673.673,0,0,1-.672.672H28.1A.673.673,0,0,1,27.425,6.319Zm-13.04,0v-4.3a.673.673,0,0,1,.672-.672h4.3a.673.673,0,0,1,.672.672v4.3a.673.673,0,0,1-.672.672h-4.3A.673.673,0,0,1,14.385,6.319Zm-13.04,0v-4.3a.673.673,0,0,1,.672-.672h4.3a.673.673,0,0,1,.672.672v4.3a.673.673,0,0,1-.672.672h-4.3A.673.673,0,0,1,1.344,6.319ZM6.991,28.1v4.3a.673.673,0,0,1-.672.672h-4.3a.673.673,0,0,1-.672-.672V28.1a.673.673,0,0,1,.672-.672h4.3A.673.673,0,0,1,6.991,28.1Zm13.04,0v4.3a.673.673,0,0,1-.672.672h-4.3a.673.673,0,0,1-.672-.672V28.1a.673.673,0,0,1,.672-.672h4.3A.673.673,0,0,1,20.031,28.1Zm13.04,0v4.3a.673.673,0,0,1-.672.672H28.1a.673.673,0,0,1-.672-.672V28.1a.673.673,0,0,1,.672-.672h4.3A.673.673,0,0,1,33.072,28.1ZM24.59,21.376H9.826a.551.551,0,0,1-.55-.55V13.591a.551.551,0,0,1,.55-.55H24.59a.551.551,0,0,1,.55.55v.794H21.532a.672.672,0,1,0,0,1.344H25.14v5.1A.551.551,0,0,1,24.59,21.376Z" fill="#bebebe"/>
        <path id="XMLID_249_" d="M271,214a.673.673,0,1,0,.475.2A.677.677,0,0,0,271,214Z" transform="translate(-252.159 -199.615)" fill="#bebebe"/>
      </g>
    </g>
  </g>
</svg>
