<svg id="XMLID_1248_" xmlns="http://www.w3.org/2000/svg" width="34.417" height="34.417" viewBox="0 0 34.417 34.417">
  <g id="XMLID_374_">
    <path id="XMLID_375_" d="M252.892,191.74a.672.672,0,1,0,.475.2A.679.679,0,0,0,252.892,191.74Z" transform="translate(-235.266 -178.851)" fill="#bebebe"/>
    <path id="XMLID_376_" d="M369.672,492a.672.672,0,1,0,.475.2A.677.677,0,0,0,369.672,492Z" transform="translate(-344.196 -458.928)" fill="#bebebe"/>
    <path id="XMLID_888_" d="M30.806,24.7H28.6a4.294,4.294,0,0,0,1.187-2.966V19.315a4.317,4.317,0,0,0-2.774-4.026,13.75,13.75,0,0,0,.11-1.728,13.561,13.561,0,1,0-13.653,13.56.6.6,0,0,0,.183,0,13.573,13.573,0,0,0,3.266-.42,3.587,3.587,0,0,0-.381,1.612v5.432a.672.672,0,0,0,.672.672h5.579a.672.672,0,1,0,0-1.344H17.881v-4.76a2.269,2.269,0,0,1,2.266-2.266h1.112v3.142a.672.672,0,0,0,1.138.485L24.8,27.36v3.7a.672.672,0,1,0,1.344,0v-3.7l2.408,2.314a.672.672,0,0,0,1.138-.485V26.046h1.112a2.269,2.269,0,0,1,2.266,2.266v4.76H28.165a.672.672,0,0,0,0,1.344h5.579a.672.672,0,0,0,.672-.672V28.313A3.615,3.615,0,0,0,30.806,24.7ZM4.826,20.042a7.378,7.378,0,0,0-1.225.585,12.145,12.145,0,0,1-2.237-6.394h4.8v4.122A2.022,2.022,0,0,0,4.826,20.042ZM3.6,6.495a7.372,7.372,0,0,0,1.259.6,2.024,2.024,0,0,0,1.3,1.477v4.319h-4.8A12.145,12.145,0,0,1,3.6,6.495Zm19.921,0a12.145,12.145,0,0,1,2.237,6.394h-4.8V7.435A7.338,7.338,0,0,0,23.522,6.5ZM8.732,19.584A2.026,2.026,0,0,0,7.5,18.355V14.233h4.156a2.026,2.026,0,0,0,1.23,1.232v4.119ZM7.5,8.569A2.027,2.027,0,0,0,8.65,7.538h4.239v4.125a2.026,2.026,0,0,0-1.228,1.226H7.5V8.569ZM19.619,19.59H14.233V15.465a2.016,2.016,0,0,0,0-3.8V7.538h5.386Zm-6.058-6.7a.672.672,0,1,1-.672.672A.673.673,0,0,1,13.561,12.892Zm.672,8.043H19.5a6.072,6.072,0,0,1-5.263,4.806Zm0-14.741V1.388A6.072,6.072,0,0,1,19.5,6.193H14.233Zm-1.344-4.8v4.8H8.79a2.021,2.021,0,0,0-.8-1.172A6.094,6.094,0,0,1,12.889,1.389ZM6.831,6a.672.672,0,1,1-.672.672A.673.673,0,0,1,6.831,6Zm0,13.588a.672.672,0,1,1-.672.672A.673.673,0,0,1,6.831,19.584Zm1.9,1.344h4.157v4.81a6.1,6.1,0,0,1-4.962-3.791A2.027,2.027,0,0,0,8.732,20.928Zm10.629,3.385a7.373,7.373,0,0,0,1.485-3.277c.108.02.214.044.32.07v.63a4.293,4.293,0,0,0,.182,1.237A12.2,12.2,0,0,1,19.361,24.314Zm3.15-2.578v-.873h1.107A4.656,4.656,0,0,0,26.8,19.611l1.642.965v1.16a2.966,2.966,0,1,1-5.932,0Zm5.916-2.729-1.405-.825a.672.672,0,0,0-.856.148,3.317,3.317,0,0,1-2.548,1.189H22.511v-.2a2.966,2.966,0,0,1,5.916-.308Zm-2.95-4a4.315,4.315,0,0,0-4.31,4.31v.415c-.067-.013-.135-.025-.2-.037V14.233h4.8q-.021.39-.067.777Q25.585,15.005,25.476,15.005Zm-2.8-9.572a6,6,0,0,1-1.827.658,7.374,7.374,0,0,0-1.489-3.281A12.293,12.293,0,0,1,22.673,5.433ZM7.755,2.814A7.375,7.375,0,0,0,6.688,4.657,2.019,2.019,0,0,0,5.05,5.724a6.03,6.03,0,0,1-.6-.291A12.3,12.3,0,0,1,7.755,2.814ZM4.449,21.689a6.034,6.034,0,0,1,.695-.329,2.018,2.018,0,0,0,1.464.9,7.45,7.45,0,0,0,1.148,2.048A12.3,12.3,0,0,1,4.449,21.689Zm17.5,2.524a4.338,4.338,0,0,0,.4.489h-1.06Q21.629,24.468,21.952,24.213Zm.65,1.833h1.628L22.6,27.611Zm5.747,1.564-1.628-1.564H28.35Z" fill="#bebebe"/>
  </g>
</svg>
